<svg xmlns="http://www.w3.org/2000/svg" x="0" y="0" enable-background="new 0 0 512 512" version="1.1" viewBox="0 0 512 512" xml:space="preserve"><path fill="#A0AD2F" d="M136.125 0c0 66.274 53.726 120 120 120 0-66.274-53.725-120-120-120z"/><path fill="#63842C" d="M256.125 120c66.274 0 120-53.726 120-120-66.274 0-120 53.726-120 120z"/><path fill="#41388D" d="M452 316c0-17.761-6.08-34.467-17.281-47.887 2.991-17.225-.097-34.732-8.978-50.113-8.88-15.382-22.498-26.81-38.909-32.831-6.022-16.412-17.45-30.029-32.832-38.91-11.383-6.572-24.32-10.046-37.411-10.046-4.257 0-8.5.361-12.689 1.078C290.478 126.083 273.767 120 256 120l-60 196 60 196c17.767 0 34.478-6.083 47.9-17.291a75.268 75.268 0 0 0 12.687 1.079c13.093 0 26.031-3.475 37.413-10.047 15.382-8.88 26.81-22.498 32.832-38.91 16.411-6.021 30.029-17.449 38.909-32.831 8.881-15.381 11.969-32.889 8.978-50.112C445.92 350.467 452 333.762 452 316z"/><path fill="#6E259B" d="M208.1 137.291a75.176 75.176 0 0 0-12.688-1.079c-13.092 0-26.029 3.475-37.413 10.047-15.382 8.881-26.81 22.498-32.832 38.91-16.41 6.021-30.027 17.449-38.908 32.831-8.881 15.381-11.969 32.889-8.978 50.113C66.08 281.533 60 298.239 60 316c0 17.762 6.08 34.467 17.281 47.888-2.991 17.224.097 34.731 8.978 50.112 8.88 15.382 22.498 26.81 38.909 32.831 6.022 16.412 17.45 30.03 32.831 38.909 11.384 6.573 24.321 10.048 37.414 10.048 4.256 0 8.499-.362 12.687-1.079C221.522 505.917 238.233 512 256 512V120c-17.767 0-34.478 6.083-47.9 17.291z"/><path fill="#20162F" d="M271 407 256 407 246 422 256 437 271 437z"/><path fill="#30275E" d="M241 407H256V437H241z"/><path fill="#20162F" d="M301 347H331V377H301z"/><path fill="#30275E" d="M181 255H211V285H181z"/></svg>