<svg xmlns="http://www.w3.org/2000/svg" x="0" y="0" enable-background="new 0 0 490 490" version="1.1" viewBox="0 0 490 490" xml:space="preserve"><path fill="#FF933B" d="M169.291 165.395C169.291 86.665 245 11.991 245 11.991s75.709 74.674 75.709 153.404C395.585 141.066 490 189.994 490 189.994s-47.624 95.079-122.5 119.408c46.276 63.693 28.918 168.607 28.918 168.607S291.276 462.097 245 398.404c-46.276 63.693-151.418 79.605-151.418 79.605S76.224 373.095 122.5 309.402C47.624 285.073 0 189.994 0 189.994s94.415-48.928 169.291-24.599z"/><path fill="#FFE239" d="M120.532 440.915c-.206-7.04-.206-14.904.181-23.247 1.237-26.688 6.762-64.075 26.058-90.633l24.271-33.405-39.271-12.76c-31.22-10.144-57.666-37.144-74.354-58.007a308.971 308.971 0 0 1-13.804-18.69c20.927-7.483 50.293-15.562 79.527-15.562 13.616 0 26.024 1.788 36.88 5.315l39.271 12.76v-41.292c0-32.827 17.506-66.321 32.192-88.639a308.397 308.397 0 0 1 13.518-18.914 308.518 308.518 0 0 1 13.518 18.914c14.686 22.318 32.191 55.812 32.191 88.639v41.292l39.271-12.76c10.855-3.527 23.264-5.315 36.88-5.315 29.232 0 58.593 8.077 79.527 15.562a308.971 308.971 0 0 1-13.804 18.69c-16.688 20.863-43.133 47.863-74.353 58.007l-39.271 12.76 24.271 33.405c19.295 26.558 24.82 63.945 26.057 90.633.387 8.343.387 16.206.181 23.247a308.806 308.806 0 0 1-22.053-7.356c-24.999-9.424-58.85-26.231-78.145-52.789L245 347.364l-24.27 33.406c-19.295 26.558-53.146 43.365-78.145 52.789a308.806 308.806 0 0 1-22.053 7.356z"/><path fill="#FF3B6A" d="M245.003 242.778a7.5 7.5 0 0 1-7.5-7.5v-51.797a7.5 7.5 0 0 1 15 0v51.797a7.5 7.5 0 0 1-7.5 7.5zM277.652 266.5a7.501 7.501 0 0 1-2.316-14.635l55.862-18.15c3.937-1.283 8.17.876 9.45 4.815s-.876 8.17-4.815 9.45l-55.862 18.15a7.47 7.47 0 0 1-2.319.37zM297.238 348.995a7.49 7.49 0 0 1-6.074-3.092l-32.059-44.127a7.5 7.5 0 1 1 12.136-8.816l32.059 44.127a7.5 7.5 0 0 1-6.062 11.908zM212.355 266.5a7.499 7.499 0 0 1-2.319-.369l-55.862-18.15a7.499 7.499 0 0 1-4.815-9.45c1.28-3.939 5.51-6.099 9.45-4.815l55.862 18.15a7.499 7.499 0 0 1 4.815 9.45 7.504 7.504 0 0 1-7.131 5.184zM192.768 348.995a7.5 7.5 0 0 1-6.062-11.909l32.059-44.127a7.5 7.5 0 0 1 12.136 8.816l-32.059 44.127a7.486 7.486 0 0 1-6.074 3.093z"/></svg>