<svg xmlns="http://www.w3.org/2000/svg" x="0" y="0" enable-background="new 0 0 490 490" version="1.1" viewBox="0 0 490 490" xml:space="preserve"><ellipse cx="245" cy="245" fill="#AD7136" rx="197.429" ry="245"/><path fill="#8C531F" d="M244.99 490C135.96 490 47.57 380.31 47.57 245S135.96 0 244.99 0c-47.5 0-86 109.69-86 245s38.5 245 86 245z"/><circle cx="245" cy="52.419" r="27.366" fill="#3F3730"/><circle cx="191.244" cy="124.18" r="27.366" fill="#3F3730"/><circle cx="298.756" cy="124.18" r="27.366" fill="#3F3730"/><g fill="#AD7136"><path d="M118.963 394.049c-6.746 0-10.028-8.648-4.963-13.124 2.244-1.983 5.548-2.423 8.238-1.123 2.961 1.431 4.67 4.737 4.12 7.981-.603 3.562-3.771 6.266-7.395 6.266zM106.013 370.309c-6.578 0-9.977-8.32-5.195-12.903 4.972-4.765 13.507-.542 12.634 6.322-.472 3.71-3.684 6.581-7.439 6.581zM130.503 370.099c-3.269 0-6.213-2.199-7.169-5.319-.96-3.132.309-6.655 3.058-8.443 5.182-3.37 12.163.836 11.575 6.997-.363 3.794-3.66 6.765-7.464 6.765z"/></g><g fill="#8C531F"><path d="M410.243 192.769c-6.705 0-10.026-8.556-5.036-13.061 2.478-2.237 6.221-2.556 9.042-.777 2.662 1.679 4.015 4.958 3.296 8.026-.784 3.349-3.848 5.812-7.302 5.812zM386.193 180.409c-6.844 0-10.017-8.776-4.873-13.201 5.085-4.374 13.15.014 12.313 6.62-.471 3.708-3.688 6.581-7.44 6.581zM406.333 166.479c-6.795 0-10.042-8.755-4.896-13.181 2.434-2.093 5.997-2.387 8.753-.754 2.64 1.564 4.052 4.7 3.533 7.714-.61 3.539-3.793 6.221-7.39 6.221z"/></g></svg>