<svg xmlns="http://www.w3.org/2000/svg" x="0" y="0" enable-background="new 0 0 483.185 483.185" version="1.1" viewBox="0 0 483.185 483.185" xml:space="preserve"><path fill="#654B87" d="M341.4 114.78C298.902 94.912 271.005 50.205 271.005.204v-.2H212.18v.2c0 50.001-27.896 94.707-70.395 114.576C65.64 150.408 13.156 225.522 13.156 312.425c0 121.319 102.272 170.76 228.437 170.76s228.437-49.441 228.437-170.76c-.001-86.903-52.484-162.017-128.63-197.645z"/><path fill="#463068" d="M241.586 483.18c-126.16 0-228.43-49.44-228.43-170.76 0-86.9 52.48-162.02 128.63-197.64 42.49-19.87 70.39-64.58 70.39-114.58V0h16.86v.2c0 50-11.9 94.71-30.03 114.58-32.49 35.62-54.88 110.74-54.88 197.64 0 121.32 43.63 170.76 97.46 170.76z"/><path fill="#312051" d="M352.219 431.755a7.5 7.5 0 0 1-6.27-11.606c16.395-25.067 24.707-58.567 24.707-99.57 0-66.366-21.975-127.794-58.783-164.322a7.501 7.501 0 0 1 10.566-10.648c39.584 39.284 63.217 104.693 63.217 174.97 0 43.968-9.136 80.231-27.154 107.78a7.494 7.494 0 0 1-6.283 3.396zM130.963 431.755a7.49 7.49 0 0 1-6.283-3.396c-18.018-27.55-27.153-63.812-27.153-107.78 0-70.278 23.633-135.688 63.217-174.97a7.498 7.498 0 0 1 10.606.041 7.5 7.5 0 0 1-.04 10.606c-36.809 36.527-58.783 97.956-58.783 164.322 0 41.002 8.313 74.502 24.706 99.57a7.5 7.5 0 0 1-2.171 10.382 7.464 7.464 0 0 1-4.099 1.225z"/></svg>