<svg xmlns="http://www.w3.org/2000/svg" viewBox="0 0 512 512"><g fill="#ff6aa0"><path d="M228 92h82.051A109.949 109.949 0 0 1 420 201.949V228h-82.051A109.949 109.949 0 0 1 228 118.051V92z" transform="rotate(90 324 160)"/><path d="M92 284h82.051A109.949 109.949 0 0 1 284 393.949V420h-82.051A109.949 109.949 0 0 1 92 310.051V284z" transform="rotate(90 188 352)"/><path d="M256 256h82.051A109.949 109.949 0 0 1 448 365.949V392h-82.051A109.949 109.949 0 0 1 256 282.051V256z" transform="rotate(180 352 324)"/><path d="M64 120h82.051A109.949 109.949 0 0 1 256 229.949V256h-82.051A109.949 109.949 0 0 1 64 146.051V120z" transform="rotate(180 160 188)"/></g><path fill="#fd84b3" d="m256 256-58.849-58.849a109.755 109.755 0 0 0-155.244 0L24 215.059l58.849 58.848a109.753 109.753 0 0 0 155.244 0zM488 296.941l-58.849-58.848a109.753 109.753 0 0 0-155.244 0L256 256l58.849 58.849a109.755 109.755 0 0 0 155.244 0z"/><path fill="#fda2c6" d="M173.949 256H256v26.051A109.949 109.949 0 0 1 146.051 392H64v-26.051A109.949 109.949 0 0 1 173.949 256zM365.949 120H448v26.051A109.949 109.949 0 0 1 338.051 256H256v-26.051A109.949 109.949 0 0 1 365.949 120z"/><path fill="#fd84b3" d="m256 256-58.018 58.018a109.951 109.951 0 0 0 0 155.493L216 488l58.42-58.087a109.951 109.951 0 0 0 0-155.493zM296 24l-58.42 58.087a109.951 109.951 0 0 0 0 155.493L256 256l58.018-58.018a109.951 109.951 0 0 0 0-155.493z"/><path fill="#fda2c6" d="M337.949 284H420v26.051A109.949 109.949 0 0 1 310.051 420H228v-26.051A109.949 109.949 0 0 1 337.949 284z" transform="rotate(-90 324 352)"/><path fill="#fda2c6" d="M201.949 92H284v26.051A109.949 109.949 0 0 1 174.051 228H92v-26.051A109.949 109.949 0 0 1 201.949 92z" transform="rotate(-90 188 160)"/><circle cx="256" cy="256" r="56" fill="#ffe76c"/></svg>