<svg xmlns="http://www.w3.org/2000/svg" x="0" y="0" enable-background="new 0 0 490 490" version="1.1" viewBox="0 0 490 490" xml:space="preserve"><path fill="#FF933B" d="M405.271 372.44c-3.95 3.58-8.07 7.12-12.28 10.59-20.03 16.58-41.81 31.69-54.76 42.51-2.61 2.18-4.86 4.18-6.66 5.98-3.69 3.69-6.96 7.54-10.11 11.42-18.57 22.89-32.8 47.06-101.31 47.06-36.98 0-58.44-20.06-64.03-51-.89-4.87-1.38-10.02-1.47-15.4-.1-5.59.23-11.44.99-17.5 2.42-19.33-13.13-48.3-32.96-80.51-3.61-5.87-7.36-11.85-11.18-17.9-14.32-22.68-29.47-46.32-41.06-68.86-2.56-4.96-4.94-9.85-7.1-14.68-15.21-33.97-19.65-64.24 2.88-83.2 1.07-.92 2.21-1.8 3.41-2.65 38.29-27.2 63.08-.9 82.4 35.26 2.89 5.42 5.67 11.06 8.35 16.78 14.1 30.11 25.54 62.29 38.27 75.02 0-.06-.01-.12-.02-.19-.04-.33-.12-1.1-.23-2.27 0-.03 0-.06-.01-.09-.88-9.07-3.64-41.4-2.75-80.43.13-5.78.34-11.71.65-17.73 1.46-28.34 5.1-58.75 12.79-85.63 1.46-5.1 3.06-10.07 4.83-14.87C227.461 27.18 250.411 0 288.571 0c6.7 0 12.62.65 17.81 1.91 32.83 7.89 36.95 39.54 30.61 80.17-.82 5.25-1.81 10.66-2.95 16.19-5.18 25.33-13.22 53.15-20.3 80.38-1.53 5.9-3.02 11.78-4.42 17.6-7.81 32.25-13.03 62.67-9.07 85.91.51 2.99 1.17 5.87 2 8.61.86 2.83 1.76 5.44 2.7 7.84 3.09 7.88 6.63 13.51 10.53 17.36l.03.03c12.16 11.97 27.83 6.74 44.41-1.64 5.27-2.65 10.63-5.63 15.99-8.47 19.76-10.47 39.62-19.12 55.35-3.39 2.6 2.6 4.53 5.32 5.84 8.13l.01.01c8.64 18.37-8.58 40.75-31.84 61.8z"/><path fill="#ED761D" d="M306.377 1.911c-30.2-1.91-106.43 56.9-84.28 264.76 0 21.5-21.27 28.04-23.45-1.31 0-.06-.01-.12-.02-.19-.05-.7-.13-1.46-.23-2.27 0-.03 0-.06-.01-.09-2.63-27.17-22.18-262.81 90.18-262.81 6.7 0 12.62.649 17.81 1.91zM220.151 490c-48.87 0-70.62-35.03-64.51-83.9 2.42-19.33-13.13-48.3-32.96-80.51-3.61-5.87-7.36-11.85-11.18-17.9-39.6-62.74-85.58-132.83-45.28-166.74-12.47 18 47.25 104.04 88.9 176.91 3.23 5.65 6.35 11.22 9.32 16.67 16.49 30.28 28.34 56.95 28.34 73.53 0 60.6-17.59 66.15 27.37 81.94zM437.097 310.63c-15.5-15.45-77.49 53.73-121.59 5.37 30.25 29.79 82.31-46.94 115.75-13.5 2.6 2.601 4.53 5.32 5.84 8.13z"/><path fill="#ED761D" d="M336.991 82.08c-.82 5.25-1.81 10.66-2.95 16.19-13.85 3.23-26.94 4.54-39.08 4.54-45.48.01-77.56-18.45-85.88-23.79 1.46-5.1 3.06-10.07 4.83-14.87l1.78 1.26c.64.45 50.43 34.66 118.07 17.49l3.23-.82zM313.741 178.65c-1.53 5.9-3.02 11.78-4.42 17.6-14.46 4.84-28.3 6.73-41.08 6.73-35.33 0-62.56-14.42-72.6-20.6.13-5.78.34-11.71.65-17.73l3.98 2.87c.77.54 50.31 34.96 108.55 12.99l4.92-1.86zM304.951 298.61c-26.62 25.14-63.48 38.21-107.46 38.21-4.66 0-9.4-.15-14.22-.44-6.57-.4-12.88-1.05-18.83-1.85-18.13-2.44-32.96-6.3-41.76-8.94-3.61-5.87-7.36-11.85-11.18-17.9l.6-1.63 7.04 2.61c.35.13 14.76 5.36 35.98 9.19 8.82 1.59 18.81 2.94 29.46 3.57 47.84 2.85 85.65-9.25 112.36-35.96l3.31-3.31c.51 2.99 1.17 5.87 2 8.61.86 2.83 1.76 5.44 2.7 7.84zM160.381 190.34c-10.82 18.78-29.71 33.01-55 41.37-15.27 5.05-28.82 6.64-34.94 7.12-2.56-4.96-4.94-9.85-7.1-14.68l3.22-.1c.62-.02 62.52-2.54 83.01-45.34l2.46-5.15c2.89 5.42 5.67 11.06 8.35 16.78zM405.271 372.44c-3.95 3.58-8.07 7.12-12.28 10.59-16.05-8.89-26.77-24.17-31.08-44.38-2.14-9.98-2.22-18.95-1.99-24.29 5.27-2.65 10.63-5.63 15.99-8.47l-.71 5.34c-.03.25-1.41 11.6 1.47 24.71 3.68 16.75 12.36 28.57 25.8 35.13l2.8 1.37zM338.231 425.54c-2.61 2.18-4.86 4.18-6.66 5.98-3.69 3.69-6.96 7.54-10.11 11.42-23.89 2.81-46.38 3.89-67.08 3.89-40.71 0-74.45-4.21-98.26-7.83-.89-4.87-1.38-10.02-1.47-15.4 37.72 5.87 103.73 14.09 183.58 1.94z"/></svg>