<svg xmlns="http://www.w3.org/2000/svg" x="0" y="0" enable-background="new 0 0 489.869 489.869" version="1.1" viewBox="0 0 489.869 489.869" xml:space="preserve"><path fill="#FFE239" d="M393.327 425.054c71.69-71.69 83.907-180.325 36.663-264.614-4.407-7.864-3.071-17.692 3.303-24.066 17.746-17.746 17.746-46.518 0-64.265-17.746-17.746-46.519-17.746-64.265 0-6.374 6.374-16.203 7.71-24.066 3.303-84.29-47.243-192.924-35.027-264.614 36.663S-3.559 292.399 43.684 376.689c4.407 7.863 3.071 17.692-3.303 24.066-17.746 17.746-17.746 46.518 0 64.265 17.746 17.746 46.519 17.746 64.265 0 6.374-6.374 16.203-7.71 24.066-3.303 84.29 47.243 192.925 35.027 264.615-36.663z"/><path fill="#FFB83B" d="M294.208 482.34c-55.06 14.72-114.7 7.85-165.49-20.62a20.135 20.135 0 0 0-9.85-2.58 20.07 20.07 0 0 0-14.22 5.88c-8.87 8.87-20.5 13.31-32.13 13.31-11.63 0-23.26-4.44-32.13-13.31-8.87-8.87-13.31-20.51-13.31-32.13 0-11.63 4.44-23.26 13.31-32.13 6.37-6.38 7.71-16.21 3.3-24.07-47.24-84.29-35.03-192.93 36.66-264.62 58.15-58.15 140.62-77.17 214.68-57.06-94.78 24.91-164.68 111.18-164.68 213.78 0 102.29 69.5 188.36 163.86 213.55z"/><path fill="#FFB83B" d="M140.767 336.008c-7.703-32.541 7.233-83.987 89.554-100.229S79.154 205.806 79.154 205.806"/><path fill="#70D65B" d="M403.99 80.12c-1.19 31.59-12.22 62.95-31.99 89.46-11.55 15.49-26.07 29.33-43.36 40.59-29.21 19.03-73.55 35.45-115.63 41.66-33.57 4.96-65.68 3.42-87.53-8.45-1.61-19.53 5.22-42.29 17.04-65.11 21.99-42.45 61.24-85.09 95.39-107.34 31.47-20.5 67.05-29.2 101.12-27.09 8.17.5 16.26 1.62 24.18 3.35 1.32.27 2.63.57 3.94.9 12.73 3.13 24.98 7.84 36.45 14.07.49 5.98.62 11.97.39 17.96z"/><path fill="#58B741" d="M403.99 80.12c-1.19 31.59-12.22 62.95-31.99 89.46-31.78 17.3-70.47 27.46-112.22 27.46-34.17 0-77.23-6.8-117.26-18.77 21.99-42.45 61.24-85.09 95.39-107.34 31.47-20.5 67.05-29.2 101.12-27.09 24.38 8.4 46.13 20.55 64.05 35.52.3.25.61.5.91.76z"/><path fill="#70D65B" d="M455.12 83.1c-32.38 49.32-98.36 83.09-174.49 83.09-42.35 0-98.38-10.45-145.34-28.22-37.46-14.17-69.13-32.99-83.5-54.87C84.16 33.78 204.5 0 280.63 0c56.58 0 107.56 18.66 143.3 48.51 1.16.95 2.3 1.92 3.42 2.91 10.88 9.57 20.23 20.2 27.77 31.68z"/><path fill="#58B741" d="M423.93 48.51c-49.28-36.23-288.64-14.15-288.64 89.46-37.46-14.17-69.13-32.99-83.5-54.87C84.16 33.78 204.5 0 280.63 0c56.58 0 107.56 18.66 143.3 48.51z"/><path fill="#4AA032" d="M466.836 90.597H156.041c-4.143 0-7.5-3.358-7.5-7.5s3.357-7.5 7.5-7.5h310.795c4.143 0 7.5 3.358 7.5 7.5s-3.357 7.5-7.5 7.5z"/><path fill="#4AA032" d="M322.724 136.901a7.5 7.5 0 0 1-5.304-12.803l41.002-41.001-41.002-41.001a7.5 7.5 0 0 1 10.607-10.606l46.305 46.304a7.5 7.5 0 0 1 0 10.606l-46.305 46.304a7.474 7.474 0 0 1-5.303 2.197zM248.499 129.186a7.5 7.5 0 0 1-5.304-12.803l33.287-33.286-33.287-33.286a7.5 7.5 0 0 1 10.607-10.606l38.59 38.589a7.5 7.5 0 0 1 0 10.606l-38.59 38.589a7.474 7.474 0 0 1-5.303 2.197zM185.11 119.665a7.5 7.5 0 0 1-5.304-12.803l23.766-23.765-23.766-23.765a7.5 7.5 0 0 1 10.607-10.606l29.068 29.068a7.5 7.5 0 0 1 0 10.606l-29.068 29.068a7.474 7.474 0 0 1-5.303 2.197z"/><g fill="#FF933B"><path d="M223.83 463.123c-3.188 0-6.133-2.12-7.117-5.152-.969-2.986.026-6.324 2.5-8.263 5.338-4.183 13.239.688 11.983 7.301-.661 3.486-3.805 6.114-7.366 6.114zM234.13 438.123c-3.137 0-6.004-2.035-7.064-4.981-1.102-3.065-.025-6.611 2.592-8.547 5.45-4.033 13.306 1.035 11.78 7.668-.774 3.366-3.829 5.86-7.308 5.86zM249.7 457.023c-3.256 0-6.239-2.194-7.173-5.319-.858-2.87.085-6.074 2.415-7.975 5.383-4.393 13.634.61 12.067 7.443-.774 3.376-3.836 5.851-7.309 5.851z"/></g><g fill="#FF933B"><path d="M69.82 178.333c-3.066 0-5.897-1.94-6.994-4.801-1.13-2.948-.26-6.338 2.121-8.4 2.447-2.119 6.155-2.37 8.88-.636 2.584 1.644 3.95 4.797 3.344 7.807-.697 3.461-3.815 6.03-7.351 6.03zM89.58 159.873c-6.689 0-9.974-8.475-5.092-13.005 4.949-4.592 13.237-.44 12.554 6.244-.387 3.788-3.644 6.761-7.462 6.761zM95.88 183.543c-6.663 0-9.999-8.474-5.086-13.005 2.326-2.145 5.831-2.586 8.621-1.104 2.828 1.503 4.394 4.743 3.855 7.895-.608 3.553-3.792 6.214-7.39 6.214z"/></g></svg>