<svg xmlns="http://www.w3.org/2000/svg" x="0" y="0" enable-background="new 0 0 512 512" version="1.1" viewBox="0 0 512 512" xml:space="preserve"><path fill="#4E901E" d="M283.039 33.812v144.212c0 13.169-10.779 23.958-23.958 23.958h-6.471c-13.18 0-23.958-10.789-23.958-23.958V33.812c0-13.169 10.779-23.948 23.958-23.948h6.471c1.412 0 2.803.124 4.153.371 11.221 1.969 19.805 11.82 19.805 23.577z"/><path fill="#5EAC24" d="M486.482 162.619c-54.851-17.373-151.765-40.693-215.932-14.395l-.155.062a37.855 37.855 0 0 1-28.791 0l-.155-.062a112.948 112.948 0 0 1 32.027-40.311 111.088 111.088 0 0 1 26.05-15.385c36.622-15.343 91.752-26.122 156.155 1.566 0 0 23.453 9.923 43.722 29.11a115.44 115.44 0 0 1 7.564 7.79c13.159 14.901-1.535 37.622-20.485 31.625z"/><g fill="#6DC82A"><path d="M499.404 123.204c-3.813 1.463-8.233 1.741-12.922.258-54.027-17.116-148.86-39.992-213.005-15.55a111.088 111.088 0 0 1 26.05-15.385c36.622-15.343 91.752-26.122 156.155 1.566-.001.001 23.453 9.924 43.722 29.111zM270.55 148.224l-.155.062a37.855 37.855 0 0 1-28.791 0l-.155-.062c-64.166-26.297-161.081-2.978-215.932 14.395-18.95 5.997-33.644-16.724-20.485-31.625a120.155 120.155 0 0 1 6.811-7.079c20.434-19.651 44.474-29.821 44.474-29.821 64.403-27.688 119.533-16.91 156.155-1.566a111.696 111.696 0 0 1 28.523 17.384 112.93 112.93 0 0 1 29.555 38.312z"/></g><path fill="#FF6243" d="m435.876 365.33.052.021c-1.092 1.659-2.566 3.596-4.39 5.791a150.033 150.033 0 0 1-20.248 21.063c-13.025 12.541-23.597 19.754-39.394 32.294a604.825 604.825 0 0 0-13.076 10.706 375.925 375.925 0 0 0-3.844 3.256l-54.882 40.105c-77.47-15.22-133.331-83.127-133.331-162.08v-37.024c0-60.663 36.427-112.804 88.588-135.752a140.557 140.557 0 0 1 17.281-6.337c1.443-.443 2.896-.855 4.359-1.237 11.943-3.164 24.484-4.864 37.405-4.926 81.561-.33 148.643 66.279 148.87 147.85.082 32.161-10.068 61.952-27.39 86.27z"/><path fill="#FF5023" d="M366.784 414.236a250.845 250.845 0 0 1-7.965 20.97 375.925 375.925 0 0 0-3.844 3.256l-54.882 40.105c-77.47-15.22-133.331-83.127-133.331-162.08v-37.024c0-60.663 36.427-112.804 88.588-135.752a140.557 140.557 0 0 1 17.281-6.337 148.09 148.09 0 0 1 52.822 28.461c16.477 13.818 28.873 31.82 36.293 52.007 6.461 17.569 14.282 44.155 17.6 76.367v.021c3.585 34.859 1.885 76.304-12.562 120.006z"/><path fill="#FF7956" d="M332.264 414.236c-5.297 16.024-12.139 31.491-20.568 46.092a234.888 234.888 0 0 1-8.347 13.427c-20.98 31.295-64.29 37.838-93.442 13.963l-43.145-35.345c-26.225-22.443-50.163-43.619-67.33-60.168a149.868 149.868 0 0 1-20.248-21.063c-1.824-2.195-3.308-4.132-4.39-5.791l.041-.021c-17.25-24.216-27.389-53.862-27.389-85.868 0-7.357.536-14.591 1.577-21.66 5.06-34.582 22.062-65.29 46.69-87.805 26.359-24.092 61.456-38.786 99.985-38.786 21.217 0 41.414 4.462 59.653 12.499a148.09 148.09 0 0 1 35.582 22.124c16.477 13.818 28.873 31.82 36.293 52.007 6.461 17.569 14.282 44.155 17.6 76.367v.021c3.585 34.86 1.885 76.305-12.562 120.007z"/><path fill="#FF9478" d="M332.264 414.236c-5.297 16.024-12.139 31.491-20.568 46.092-22.598 15.21-53.532 14.9-76.027-3.524l-43.145-35.345c-26.225-22.443-50.163-43.619-67.33-60.168a149.915 149.915 0 0 1-20.248-21.062c-1.824-2.195-3.308-4.132-4.39-5.791l.041-.021c-17.25-24.216-27.389-53.862-27.389-85.868 0-7.357.536-14.591 1.577-21.66a147.248 147.248 0 0 1 20.929-56.891c26.359-24.092 61.456-38.786 99.985-38.786 21.217 0 41.414 4.462 59.653 12.499a148.09 148.09 0 0 1 35.582 22.124c16.477 13.818 28.873 31.82 36.293 52.007 6.461 17.569 14.282 44.155 17.6 76.367v.021c3.584 34.859 1.884 76.304-12.563 120.006z"/><path fill="#5EAC24" d="M283.039 33.812v56.283h-7.46c-6.801 0-12.365-5.564-12.365-12.365V10.75c0-.175 0-.34.021-.515 11.22 1.969 19.804 11.82 19.804 23.577z"/><path fill="#7ED63E" d="M240.996 109.911C176.83 83.913 80.245 107.16 25.518 124.492c-4.998 1.577-9.697 1.164-13.674-.577 20.434-19.651 44.474-29.821 44.474-29.821 64.403-27.688 119.533-16.91 156.155-1.566a111.703 111.703 0 0 1 28.523 17.383z"/></svg>