<svg xmlns="http://www.w3.org/2000/svg" x="0" y="0" enable-background="new 0 0 489.87 489.87" version="1.1" viewBox="0 0 489.87 489.87" xml:space="preserve"><path fill="#70D65B" d="m244.937 129.906 16.693-35.01c8.5-24.28 9.58-51.74 1.45-78.66-15.19-.28-30.04 1.38-44.14 4.88 13.75 22.44 16.94 49.36 9.57 73.87"/><path fill="#70D65B" d="M350.338 132.956c0-82.776-105.402-31.218-105.402-31.218S139.535 50.18 139.535 132.956"/><path fill="#58B741" d="M244.585 101.564v31.39h-105.05c0-79.99 98.44-34.53 105.05-31.39z"/><path fill="#FF933B" d="M489.87 301.784c0 94.93-76.95 171.88-171.88 171.88-12.53 0-24.75-1.34-36.52-3.89h-73.06a172.358 172.358 0 0 1-36.53 3.89C76.95 473.664 0 396.714 0 301.784s76.95-171.88 171.88-171.88c12.54 0 24.76 1.34 36.53 3.89h73.06c11.77-2.55 23.99-3.89 36.52-3.89 94.93 0 171.88 76.95 171.88 171.88z"/><path fill="#ED761D" d="M247.58 133.794v335.98h-39.17a172.358 172.358 0 0 1-36.53 3.89C76.95 473.664 0 396.714 0 301.784s76.95-171.88 171.88-171.88c12.54 0 24.76 1.34 36.53 3.89h39.17z"/><circle cx="220.938" cy="301.785" r="171.879" fill="#FF933B"/><circle cx="261.878" cy="301.785" r="171.879" fill="#ED761D"/><circle cx="244.937" cy="301.785" r="171.879" fill="#FF933B"/><path fill="#ED761D" d="M243.628 473.654c-94.33-.7-170.57-77.38-170.57-171.87s76.24-171.17 170.57-171.87c-55.39 1.19-100.08 77.68-100.08 171.87s44.69 170.68 100.08 171.87z"/></svg>