<svg xmlns="http://www.w3.org/2000/svg" x="0" y="0" enable-background="new 0 0 512 512" version="1.1" viewBox="0 0 512 512" xml:space="preserve"><g fill="#D8143A"><path d="M391.626 127.075c-21.042-8.955-44.918-13.732-72.153-16.171-12.651-1.133-26.031-1.766-40.2-2.064-4.931-.102-9.948-.172-15.071-.203-2.656-.016-5.32-.029-8.029-.031h-.175c-2.766 0-5.486.014-8.198.031-5.123.033-10.141.101-15.071.203-14.168.298-27.55.929-40.2 2.062-27.237 2.441-51.115 7.218-72.156 16.173-47.182 20.081-71.104 58.231-71.104 113.391 0 52.393 25.091 118.016 67.12 175.542C137.472 444.871 193.288 512 255.997 512c.059 0 .116-.003.175-.003 62.639-.126 118.373-67.154 139.439-95.988 42.029-57.526 67.122-123.15 67.122-175.543 0-55.158-23.924-93.308-71.107-113.391z"/><path d="M391.626 127.075c-21.04-8.955-44.918-13.732-72.153-16.171-12.651-1.133-26.031-1.766-40.2-2.064-4.931-.102-9.948-.172-15.071-.203-2.656-.016-5.32-.029-8.029-.029l-.175-.002c-2.766 0-5.486.014-8.198.031-5.123.033-10.141.101-15.071.203-14.168.298-27.55.929-40.2 2.062-27.237 2.441-51.115 7.218-72.156 16.173-47.182 20.081-71.104 58.231-71.104 113.391 0 52.393 25.091 118.016 67.12 175.542C137.472 444.871 193.288 512 255.997 512c.059 0 .116-.003.175-.003 62.639-.124 118.373-67.154 139.439-95.988 42.029-57.526 67.122-123.15 67.122-175.543 0-55.158-23.924-93.308-71.107-113.391z"/></g><path fill="#76B46D" d="M247.799 108.637c2.712-.017 5.432-.031 8.198-.031 2.769 0 5.491.014 8.204.031 5.123.033 10.141.101 15.071.203 14.168.298 27.549.929 40.2 2.064l28.641-22.913c10.038-8.029 11.664-22.674 3.635-32.711-8.032-10.038-22.677-11.664-32.711-3.635l-39.765 31.812V23.273C279.273 10.42 268.853 0 256 0c-12.853 0-23.273 10.42-23.273 23.273v60.185l-39.765-31.812c-10.037-8.031-24.683-6.402-32.711 3.635-8.029 10.037-6.403 24.682 3.635 32.711l28.641 22.913c12.65-1.133 26.031-1.764 40.2-2.062 4.931-.105 9.949-.175 15.072-.206z"/><g fill="#FF3F62"><path d="M162.915 263.762c6.113 0 12.119-2.498 16.448-6.827 4.344-4.329 6.825-10.333 6.825-16.446 0-6.128-2.482-12.133-6.825-16.462-4.329-4.329-10.333-6.811-16.448-6.811-6.128 0-12.131 2.482-16.46 6.811-4.329 4.329-6.813 10.333-6.813 16.462s2.484 12.117 6.813 16.446c4.329 4.331 10.332 6.827 16.46 6.827zM272.452 379.181a22.603 22.603 0 0 0-1.69-1.527c-.334-.272-.687-.514-1.035-.765-.264-.192-.515-.399-.787-.58a23.888 23.888 0 0 0-1.525-.912c-.14-.078-.272-.169-.411-.245-.621-.33-1.258-.63-1.907-.905-.042-.019-.085-.043-.127-.062a23.358 23.358 0 0 0-8.791-1.808h-.009c-.056 0-.11-.008-.166-.008-6.128 0-12.131 2.482-16.46 6.811-4.329 4.329-6.813 10.333-6.813 16.462s2.484 12.117 6.813 16.446c4.329 4.344 10.332 6.827 16.46 6.827.056 0 .11-.008.166-.008h.009a23.287 23.287 0 0 0 8.789-1.809c.051-.022.099-.05.15-.071a22.7 22.7 0 0 0 1.885-.895c.15-.081.292-.178.439-.262a22.966 22.966 0 0 0 1.497-.898c.282-.188.546-.405.818-.607.337-.245.681-.479 1.002-.743a22.636 22.636 0 0 0 1.69-1.531c4.344-4.329 6.825-10.333 6.825-16.446.005-6.132-2.477-12.121-6.822-16.464zM272.452 224.029a22.603 22.603 0 0 0-1.69-1.527c-.334-.272-.687-.514-1.035-.765-.264-.192-.515-.399-.787-.58a23.888 23.888 0 0 0-1.525-.912c-.14-.078-.272-.169-.411-.245-.621-.33-1.258-.63-1.907-.905-.042-.019-.085-.043-.127-.062a23.337 23.337 0 0 0-8.791-1.807h-.009c-.056 0-.11-.008-.166-.008-6.128 0-12.131 2.482-16.46 6.811s-6.813 10.333-6.813 16.462 2.484 12.117 6.813 16.446c4.329 4.344 10.332 6.827 16.46 6.827.056 0 .11-.008.166-.008h.009a23.287 23.287 0 0 0 8.789-1.809c.051-.022.099-.05.15-.071a23.024 23.024 0 0 0 1.885-.895c.15-.081.292-.178.439-.262a22.966 22.966 0 0 0 1.497-.898c.282-.188.546-.405.818-.607.337-.245.681-.479 1.002-.743a22.636 22.636 0 0 0 1.69-1.531c4.344-4.329 6.825-10.333 6.825-16.446.005-6.133-2.477-12.122-6.822-16.465zM349.082 263.762c6.128 0 12.133-2.482 16.462-6.827 4.329-4.329 6.825-10.333 6.825-16.446 0-6.128-2.496-12.133-6.825-16.462-4.329-4.329-10.333-6.811-16.462-6.811-6.113 0-12.116 2.482-16.446 6.811-4.329 4.329-6.813 10.333-6.813 16.462 0 6.113 2.484 12.117 6.813 16.446 4.33 4.345 10.333 6.827 16.446 6.827zM286.092 334.513c4.329 4.329 10.332 6.827 16.46 6.827 6.113 0 12.119-2.498 16.448-6.827 4.329-4.329 6.825-10.333 6.825-16.446 0-6.128-2.496-12.117-6.825-16.462-4.329-4.329-10.318-6.811-16.448-6.811-6.128 0-12.131 2.482-16.46 6.811-4.329 4.329-6.813 10.333-6.813 16.462 0 6.127 2.484 12.117 6.813 16.446zM193.001 334.513c4.329 4.344 10.332 6.827 16.46 6.827 6.113 0 12.119-2.482 16.448-6.827 4.329-4.329 6.811-10.318 6.811-16.446 0-6.128-2.482-12.133-6.811-16.462-4.329-4.329-10.333-6.811-16.448-6.811-6.128 0-12.131 2.482-16.46 6.811-4.329 4.329-6.813 10.333-6.813 16.462 0 6.127 2.482 12.117 6.813 16.446z"/></g><g fill="#D8143A"><path d="M265.1 374.247zM270.764 413.62c-.321.264-.667.496-1.002.743.335-.247.681-.479 1.002-.743zM256.182 372.378zM267.416 375.395zM269.729 376.889c.348.253.701.493 1.035.765-.333-.273-.689-.513-1.035-.765zM264.971 417.097zM267.006 416.129zM268.943 414.968zM268.943 259.817a23.7 23.7 0 0 1-1.497.898c.505-.287 1.011-.574 1.497-.898zM265.1 219.096zM270.764 258.468c-.321.264-.667.497-1.002.743.335-.246.681-.479 1.002-.743zM256.182 217.226zM269.729 221.738c.348.253.701.493 1.035.765-.333-.273-.689-.514-1.035-.765zM264.971 261.944zM267.006 260.977zM267.416 220.244z"/></g><path fill="#B8002B" d="M116.387 416.008C137.472 444.871 193.288 512 255.997 512c.059 0 .116-.003.175-.003v-93.091c-.056 0-.11.008-.166.008-6.128 0-12.131-2.482-16.46-6.827-4.329-4.329-6.813-10.318-6.813-16.446 0-6.128 2.484-12.133 6.813-16.462 4.329-4.329 10.332-6.811 16.46-6.811.056 0 .11.008.166.008V263.753c-.056 0-.11.008-.166.008-6.128 0-12.131-2.482-16.46-6.827-4.329-4.329-6.813-10.318-6.813-16.446 0-6.128 2.484-12.133 6.813-16.462 4.329-4.329 10.332-6.811 16.46-6.811.056 0 .11.008.166.008V108.608l-.175-.002c-2.766 0-5.486.014-8.198.031-5.123.033-10.141.101-15.071.203-14.168.298-27.55.929-40.2 2.062-27.237 2.441-51.115 7.218-72.156 16.173-47.182 20.081-71.104 58.231-71.104 113.391-.001 52.393 25.09 118.016 67.119 175.542zm76.614-114.403c4.329-4.329 10.332-6.811 16.46-6.811 6.113 0 12.119 2.482 16.448 6.811 4.329 4.329 6.811 10.333 6.811 16.462s-2.482 12.117-6.811 16.446c-4.329 4.344-10.333 6.827-16.448 6.827-6.128 0-12.131-2.482-16.46-6.827-4.329-4.329-6.813-10.318-6.813-16.446 0-6.13 2.482-12.133 6.813-16.462zm-46.546-77.576c4.329-4.329 10.332-6.811 16.46-6.811 6.113 0 12.119 2.482 16.448 6.811 4.344 4.329 6.825 10.333 6.825 16.462 0 6.113-2.482 12.117-6.825 16.446-4.329 4.329-10.333 6.827-16.448 6.827-6.128 0-12.131-2.498-16.46-6.827-4.329-4.329-6.813-10.318-6.813-16.446.001-6.13 2.483-12.133 6.813-16.462z"/></svg>