<svg xmlns="http://www.w3.org/2000/svg" viewBox="-31 0 512 512"><path fill="#ff9f00" d="M282.676 182.945c-4.684-18.84-11.637-36.34-20.692-52.015-25.433-44.043-71.668-80.371-133.722-105.086C82.129 7.473 43.68 1.883 42.066 1.652L30.422 0l-4.39 10.906c-.614 1.512-14.989 37.598-22.145 86.746-9.633 66.094-1.282 124.317 24.152 168.36 33.57 58.148 95.652 90.945 141.816 108.207l12.286 4.601 32.25-60.191 69.675-130.07zm0 0"/><path fill="#ff7816" d="m284.066 188.559-69.675 130.07-24.036-41.613-90.347-156.48-.02-.052L30.422 0l11.644 1.652c1.614.23 40.063 5.82 86.196 24.192C190.316 50.559 236.55 86.887 261.984 130.93c9.055 15.675 16.008 33.175 20.692 52.015zm0 0"/><path fill="#ff7816" d="m183.633 235.344 19.73 34.168-13.008 7.504-1.148.671-6.273 23.391-71.29-19.098 7.774-28.996 47.004 12.594-38.797-67.215-76.012-20.37L59.387 149l47.004 12.594-19.399-33.606 25.992-15.008 49.418 85.606L175 151.57l28.992 7.774zm0 0"/><path fill="#ff4b00" d="m183.633 235.344 19.73 34.168-13.008 7.504-90.347-156.48-.02-.052 12.996-7.504 49.418 85.606L175 151.57l28.992 7.774zm0 0"/><path fill="#ff9f00" d="M422.11 382.332c-25.434 44.074-71.7 80.242-133.782 104.625-28.406 11.145-53.566 17.648-78.71 22.082-.063.008-.13.02-.192.031l-1.36-17.511-3.754.37-20.66 2.04c-8.535-23.813-15.238-48.836-19.64-78.84-9.625-65.774-1.282-123.816 24.152-167.867 25.426-44.035 71.668-80.375 133.723-105.086 35.476-14.13 65.902-21.313 97.84-25.844 12.085 30.023 21.101 60.332 26.535 97.652 9.633 66.094 1.281 124.313-24.153 168.348zm0 0"/><path fill="#ff7816" d="m204.313 491.93 3.753-.371 1.36 17.511c.062-.011.129-.023.191-.03 25.145-4.435 50.305-10.938 78.711-22.083 62.082-24.383 108.348-60.55 133.781-104.625 25.434-44.035 33.786-102.254 24.153-168.348-5.434-37.32-14.45-67.629-26.535-97.652l-217.684 375.82zm0 0"/><path fill="#ff7816" d="m368.52 346.313-76.329 20.449-82.574 142.277a472.05 472.05 0 0 1-16.668 2.621c-.8.121-1.601.23-2.402.34a479.563 479.563 0 0 1-6.895-18.031l52.727-90.766-20.238-75.539 28.996-7.773 12.496 46.644 38.847-67.039-20.308-75.808 28.996-7.774 12.566 46.914 19.438-33.539 13.367 7.746 12.61 7.305-49.637 85.633 47.234-12.645zm0 0"/><path fill="#ff4b00" d="m209.617 509.04 82.574-142.278 76.329-20.45-7.774-28.984-47.234 12.645 49.636-85.633-12.609-7.305-.543-.316L190.546 512c.802-.11 1.602-.219 2.403-.34a472.05 472.05 0 0 0 16.668-2.62zm0 0"/></svg>